# xmcd
#
# Track frame offsets:
#	150
#	14650
#	25994
#	37554
#	49989
#	65387
#	77099
#	85685
#	97419
#	111580
#	125148
#	136535
#
# Disc length: 1995 seconds
#
# Revision: 1
# Processed by: cddbd v1.5.2PL0 Copyright (c) Steve Scherf et al.
# Submitted via: audiograbber 1.83.01
#
DISCID=9f07c90c
DTITLE=Various Artist - Great American Romantic Standards - Hold Me In Your Arms
DYEAR=2007
DGENRE=Jazz
TTITLE0=Benny Goodman (feat. Martha Tilton) - And The Angels Sing
TTITLE1=Judy Garland and Gene Kelly - For Me And My Gal 
TTITLE2=Glenn Miller (feat. Ray Eberle) - Fools Rush In
TTITLE3=Jo Stafford - Make Love To Me
TTITLE4=Sarah Vaughan - Lover Man
TTITLE5=Lena Horne  - Night and  Day
TTITLE6=Connie Francis - There Will Never Be Another You
TTITLE7=Peggy Lee - I Can't Give You Anything But Love(Live)
TTITLE8=Mel Torme - Blue Moon
TTITLE9=Dinah Washington - How Deep Is The Ocean
TTITLE10=Ella Fitzgerald - Three Little Words
TTITLE11=Billie Holiday - I Only Have Eyes For You
EXTD=YEAR: 2007
EXTT0=
EXTT1=
EXTT2=
EXTT3=
EXTT4=
EXTT5=
EXTT6=
EXTT7=
EXTT8=
EXTT9=
EXTT10=
EXTT11=
PLAYORDER=
